<svg xmlns="http://www.w3.org/2000/svg" version="1.1" xmlns:xlink="http://www.w3.org/1999/xlink" xmlns:svgjs="http://svgjs.dev/svgjs" width="1500" height="1243" viewBox="0 0 1500 1243"><g transform="matrix(1,0,0,1,-0.931224501366728,0.503238866396714)"><svg viewBox="0 0 298 247" data-background-color="#ebe3d6" preserveAspectRatio="xMidYMid meet" height="1243" width="1500" xmlns="http://www.w3.org/2000/svg" xmlns:xlink="http://www.w3.org/1999/xlink"><g id="tight-bounds" transform="matrix(1,0,0,1,0.18500326760485564,-0.09999999999999432)"><svg viewBox="0 0 297.6299934647903 247.2" height="247.2" width="297.6299934647903"><g><svg viewBox="0 0 395.52 328.50366611847033" height="247.2" width="297.6299934647903"><g transform="matrix(1,0,0,1,0,244.42292439661603)"><svg viewBox="0 0 395.52 84.08074172185431" height="84.08074172185431" width="395.52"><g id="textblocktransform"><svg viewBox="0 0 395.52 84.08074172185431" height="84.08074172185431" width="395.52" id="textblock"><g><svg viewBox="0 0 395.52 84.08074172185431" height="84.08074172185431" width="395.52"><g transform="matrix(1,0,0,1,0,0)"><svg width="395.52" viewBox="3.35 -31.5 150.98000000000002 32.1" height="84.08074172185431" data-palette-color="#505050"><path d="M10.1 0.6L10.1 0.6Q8.2 0.6 6.68 0.18 5.15-0.25 4.25-1.65 3.35-3.05 3.35-5.9L3.35-5.9 3.35-23.45Q3.35-26.35 4.25-27.73 5.15-29.1 6.73-29.53 8.3-29.95 10.2-29.95L10.2-29.95Q12.15-29.95 13.68-29.5 15.2-29.05 16.1-27.68 17-26.3 17-23.45L17-23.45 17-19.05 16.2-19.05 16.2-23.65Q16.2-26.05 15.43-27.23 14.65-28.4 13.3-28.78 11.95-29.15 10.15-29.15L10.15-29.15Q8.3-29.15 6.95-28.73 5.6-28.3 4.88-27.08 4.15-25.85 4.15-23.35L4.15-23.35 4.15-5.8Q4.15-3.4 4.98-2.2 5.8-1 7.18-0.6 8.55-0.2 10.15-0.2L10.15-0.2Q11.9-0.2 13.28-0.6 14.65-1 15.43-2.2 16.2-3.4 16.2-5.8L16.2-5.8 16.2-9.45 17-9.45 17-5.9Q17-3 16.1-1.63 15.2-0.25 13.65 0.18 12.1 0.6 10.1 0.6ZM29.15 0.35L29.15 0.35Q27 0.35 25.77-0.23 24.55-0.8 24-1.75 23.45-2.7 23.3-3.88 23.15-5.05 23.15-6.2L23.15-6.2 23.15-18.6Q23.15-19.75 23.3-20.9 23.45-22.05 24.02-23.03 24.6-24 25.85-24.58 27.1-25.15 29.35-25.15L29.35-25.15Q32.1-25.15 33.35-24.15 34.6-23.15 34.97-21.65 35.35-20.15 35.35-18.6L35.35-18.6 35.35-6.2Q35.35-4.65 34.97-3.15 34.6-1.65 33.3-0.65 32 0.35 29.15 0.35ZM29.15-0.45L29.15-0.45Q31.75-0.45 32.87-1.38 34-2.3 34.27-3.68 34.55-5.05 34.55-6.35L34.55-6.35 34.55-18.45Q34.55-19.8 34.27-21.15 34-22.5 32.92-23.43 31.85-24.35 29.35-24.35L29.35-24.35Q27.35-24.35 26.22-23.8 25.1-23.25 24.62-22.38 24.15-21.5 24.05-20.48 23.95-19.45 23.95-18.45L23.95-18.45 23.95-6.35Q23.95-5.35 24.05-4.33 24.15-3.3 24.6-2.43 25.05-1.55 26.12-1 27.2-0.45 29.15-0.45ZM47.2 0.35L47.2 0.35Q44.4 0.35 43.12-0.65 41.84-1.65 41.55-3.15 41.25-4.65 41.25-6.2L41.25-6.2 41.25-18.6Q41.25-19.75 41.4-20.9 41.55-22.05 42.09-23.03 42.65-24 43.87-24.58 45.09-25.15 47.2-25.15L47.2-25.15Q48.95-25.15 50-24.78 51.05-24.4 51.62-23.95 52.2-23.5 52.4-23.3L52.4-23.3 52.4-31.5 53.2-31.5 53.2 0 52.55 0 52.45-2.5Q52.09-1.45 50.7-0.55 49.3 0.35 47.2 0.35ZM47.2-0.45L47.2-0.45Q49.3-0.45 50.42-1.28 51.55-2.1 51.97-3.45 52.4-4.8 52.4-6.35L52.4-6.35 52.4-21.85Q52.25-22.2 51.82-22.78 51.4-23.35 50.32-23.85 49.25-24.35 47.2-24.35L47.2-24.35Q45.25-24.35 44.2-23.8 43.15-23.25 42.7-22.38 42.25-21.5 42.15-20.48 42.05-19.45 42.05-18.45L42.05-18.45 42.05-6.35Q42.05-5.35 42.15-4.33 42.25-3.3 42.7-2.43 43.15-1.55 44.2-1 45.25-0.45 47.2-0.45ZM65.54 0.35L65.54 0.35Q63.39 0.35 62.17-0.23 60.94-0.8 60.39-1.75 59.84-2.7 59.69-3.88 59.54-5.05 59.54-6.2L59.54-6.2 59.54-18.6Q59.54-20.15 59.89-21.65 60.24-23.15 61.52-24.15 62.79-25.15 65.54-25.15L65.54-25.15Q68.34-25.15 69.59-24.2 70.84-23.25 71.17-21.75 71.49-20.25 71.49-18.6L71.49-18.6 71.49-13.15 60.34-13.15 60.34-6.35Q60.34-4.9 60.62-3.53 60.89-2.15 61.99-1.3 63.09-0.45 65.54-0.45L65.54-0.45Q67.99-0.45 69.07-1.3 70.14-2.15 70.42-3.5 70.69-4.85 70.69-6.35L70.69-6.35 70.69-8.35 71.49-8.35 71.49-6.2Q71.49-4.65 71.19-3.15 70.89-1.65 69.64-0.65 68.39 0.35 65.54 0.35ZM60.34-18.15L60.34-13.95 70.69-13.95 70.69-18.15Q70.69-19.9 70.44-21.3 70.19-22.7 69.12-23.53 68.04-24.35 65.54-24.35L65.54-24.35Q63.34-24.35 62.22-23.58 61.09-22.8 60.72-21.43 60.34-20.05 60.34-18.15L60.34-18.15ZM82.69 0.45L82.69 0.45Q80.79 0.45 79.34-0.33 77.89-1.1 77.12-3 76.34-4.9 76.34-8.15L76.34-8.15 76.34-8.75 77.14-8.75 77.14-8.15Q77.14-5.15 77.87-3.45 78.59-1.75 79.84-1.05 81.09-0.35 82.69-0.35L82.69-0.35Q85.34-0.35 87.09-1.88 88.84-3.4 88.84-7.3L88.84-7.3Q88.84-9.9 87.97-11.28 87.09-12.65 85.62-13.4 84.14-14.15 82.39-14.8L82.39-14.8Q80.59-15.5 79.27-16.38 77.94-17.25 77.22-18.65 76.49-20.05 76.49-22.4L76.49-22.4Q76.49-25.75 77.97-27.75 79.44-29.75 82.89-29.75L82.89-29.75Q85.89-29.75 87.64-28.1 89.39-26.45 89.39-23.45L89.39-23.45 89.39-21.45 88.59-21.45 88.59-23.25Q88.59-25.95 87.09-27.45 85.59-28.95 82.89-28.95L82.89-28.95Q79.79-28.95 78.54-27.08 77.29-25.2 77.29-22.4L77.29-22.4Q77.29-20.1 78.06-18.8 78.84-17.5 80.12-16.8 81.39-16.1 82.84-15.5L82.84-15.5Q85.24-14.55 86.74-13.65 88.24-12.75 88.94-11.33 89.64-9.9 89.64-7.3L89.64-7.3Q89.64-4.45 88.72-2.75 87.79-1.05 86.22-0.3 84.64 0.45 82.69 0.45ZM95.84 0L95.04 0 95.04-31.5 95.84-31.5 95.84-22.25Q96.39-23.4 97.66-24.28 98.94-25.15 101.29-25.15L101.29-25.15Q103.39-25.15 104.61-24.58 105.84-24 106.39-23.03 106.94-22.05 107.09-20.9 107.24-19.75 107.24-18.6L107.24-18.6 107.24 0 106.44 0 106.44-18.15Q106.44-19.65 106.19-21.08 105.94-22.5 104.86-23.43 103.79-24.35 101.29-24.35L101.29-24.35Q98.54-24.35 97.29-22.98 96.04-21.6 95.84-19.45L95.84-19.45 95.84 0ZM118.29 0.2L118.29 0.2Q117.14 0.2 115.91-0.2 114.69-0.6 113.84-1.83 112.99-3.05 112.99-5.6L112.99-5.6 112.99-7.3Q112.99-8.9 113.71-10.1 114.44-11.3 115.46-12.13 116.49-12.95 117.46-13.48 118.44-14 118.89-14.25L118.89-14.25Q120.89-15.35 122.01-16.18 123.14-17 123.64-17.88 124.14-18.75 124.14-20L124.14-20 124.14-20.7Q124.14-22.4 123.41-23.15 122.69-23.9 121.59-24.1 120.49-24.3 119.34-24.3L119.34-24.3Q117.14-24.3 116.06-23.55 114.99-22.8 114.66-21.55 114.34-20.3 114.34-18.75L114.34-18.75 114.34-16.7 113.54-16.7 113.54-18.85Q113.54-21.75 114.69-23.43 115.84-25.1 119.34-25.1L119.34-25.1Q122.04-25.1 123.21-24.4 124.39-23.7 124.66-22.58 124.94-21.45 124.94-20.1L124.94-20.1 124.94 0 124.19 0 124.19-3.65Q123.59-1.9 122.06-0.85 120.54 0.2 118.29 0.2ZM118.44-0.6L118.44-0.6Q120.64-0.6 121.86-1.55 123.09-2.5 123.61-4.15 124.14-5.8 124.14-7.85L124.14-7.85 124.14-17.05Q123.34-15.95 121.96-15.13 120.59-14.3 119.14-13.45L119.14-13.45Q117.89-12.75 116.66-11.98 115.44-11.2 114.61-10 113.79-8.8 113.79-6.9L113.79-6.9 113.79-5.6Q113.79-3.25 114.54-2.2 115.29-1.15 116.39-0.88 117.49-0.6 118.44-0.6ZM132.18 0L131.38 0 131.38-24.75 132.08-24.75 132.18-22.25Q132.73-23.4 134.01-24.28 135.28-25.15 137.63-25.15L137.63-25.15Q138.68-25.15 139.48-25L139.48-25 139.48-24.2Q138.68-24.35 137.63-24.35L137.63-24.35Q134.88-24.35 133.53-22.9 132.18-21.45 132.18-19.45L132.18-19.45 132.18 0ZM148.38 0.35L148.38 0.35Q146.23 0.35 145-0.23 143.78-0.8 143.23-1.75 142.68-2.7 142.53-3.88 142.38-5.05 142.38-6.2L142.38-6.2 142.38-18.6Q142.38-20.15 142.73-21.65 143.08-23.15 144.36-24.15 145.63-25.15 148.38-25.15L148.38-25.15Q151.18-25.15 152.43-24.2 153.68-23.25 154-21.75 154.33-20.25 154.33-18.6L154.33-18.6 154.33-13.15 143.18-13.15 143.18-6.35Q143.18-4.9 143.46-3.53 143.73-2.15 144.83-1.3 145.93-0.45 148.38-0.45L148.38-0.45Q150.83-0.45 151.91-1.3 152.98-2.15 153.25-3.5 153.53-4.85 153.53-6.35L153.53-6.35 153.53-8.35 154.33-8.35 154.33-6.2Q154.33-4.65 154.03-3.15 153.73-1.65 152.48-0.65 151.23 0.35 148.38 0.35ZM143.18-18.15L143.18-13.95 153.53-13.95 153.53-18.15Q153.53-19.9 153.28-21.3 153.03-22.7 151.96-23.53 150.88-24.35 148.38-24.35L148.38-24.35Q146.18-24.35 145.06-23.58 143.93-22.8 143.56-21.43 143.18-20.05 143.18-18.15L143.18-18.15Z" opacity="1" transform="matrix(1,0,0,1,0,0)" fill="#505050" class="wordmark-text-0" data-fill-palette-color="primary" id="text-0"></path></svg></g></svg></g></svg></g></svg></g><g transform="matrix(1,0,0,1,95.39798298442045,0)"><svg viewBox="0 0 204.72403403115908 204.72403403115908" height="204.72403403115908" width="204.72403403115908"><g><svg></svg></g><g id="icon-0"><svg viewBox="0 0 204.72403403115908 204.72403403115908" height="204.72403403115908" width="204.72403403115908"><g><path d="M0 102.362c0-56.533 45.829-102.362 102.362-102.362 56.533 0 102.362 45.829 102.362 102.362 0 56.533-45.829 102.362-102.362 102.362-56.533 0-102.362-45.829-102.362-102.362zM102.362 197.142c52.345 0 94.78-42.434 94.78-94.78 0-52.345-42.434-94.78-94.78-94.78-52.345 0-94.78 42.434-94.78 94.78 0 52.345 42.434 94.78 94.78 94.78z" data-fill-palette-color="accent" fill="#f39361" stroke="transparent"></path></g><g transform="matrix(1,0,0,1,43.12530617269087,55.46628759829267)"><svg viewBox="0 0 118.47342168577734 93.79145883457373" height="93.79145883457373" width="118.47342168577734"><g><svg xmlns="http://www.w3.org/2000/svg" xmlns:xlink="http://www.w3.org/1999/xlink" version="1.1" x="0" y="0" viewBox="5 5 48 38" enable-background="new 0 0 58 48" xml:space="preserve" height="93.79145883457373" width="118.47342168577734" class="icon-dxe-0" data-fill-palette-color="accent" id="dxe-0"><path fill-rule="evenodd" clip-rule="evenodd" d="M5 43V13H53V43zM51 41V15H7V41zM9 9H49V11H9zM13 5H45V7H13zM23.651 35.008L17 28 23.651 20.991 25.016 22.398 19.73 28 25.016 33.602zM34.349 20.992L41 28 34.349 35.009 32.984 33.602 38.27 28 32.984 22.398z" fill="#f39361" data-fill-palette-color="accent"></path></svg></g></svg></g></svg></g></svg></g><g></g></svg></g><defs></defs></svg><rect width="297.6299934647903" height="247.2" fill="none" stroke="none" visibility="hidden"></rect></g></svg></g></svg>